# xmcd
#
# Track frame offsets: 
#        150
#        38846
#        70187
#        101847
#        116033
#        132553
#        166622
#        201975
#        219764
#        251299
#        287027
#        318537
#
# Disc length: 4738 seconds
#
# Revision: 0
# Processed by: cddbd v1.5.2PL0 Copyright (c) Steve Scherf et al.
# Submitted via: ExactAudioCopy v1.0b3
#
DISCID=af12800c
DTITLE=Various Artist - Clubworx - CD 2
DYEAR=1900
DGENRE=
TTITLE0=Tom Wax - ...And Then It Hit Me! (Rmx)
TTITLE1=Boca - Miami (Raton Mix)
TTITLE2=Commander Tom - Sweet Thang (Club Mix)
TTITLE3=Space Frog - Terminator (Kombat Club Mix)
TTITLE4=Kay Cee - I Feel You (Radio Edit)
TTITLE5=Stephan Krus - Zool E.P. (Project 3 Mix)
TTITLE6=Barthezz - Infected (Xtd)
TTITLE7=Andy Jay Powell Meets Robert Kline - Like A Dream (RMB Rmx)
TTITLE8=Panic Machine - Rock On (Main Mix)
TTITLE9=Giorgio Ponticelli - Tranceunity (Elektrosmog Rmx)
TTITLE10=Slam Feat. Tyrone ''Visionary'' Palmer - Lifetimes (Silicon S
TTITLE10=oul Mix)
TTITLE11=Tom Novy - Back To The Streets (Full Vox Club Mix)
EXTD=
EXTT0=
EXTT1=
EXTT2=
EXTT3=
EXTT4=
EXTT5=
EXTT6=
EXTT7=
EXTT8=
EXTT9=
EXTT10=
EXTT11=
PLAYORDER=
